<svg xmlns="http://www.w3.org/2000/svg" viewBox="266.19 364.48 845.63 450.68" role="img" aria-label="Weconomics">
  <path fill="#00797a" d="M548.42,569.53c13.81,1.85,22.49-.69,27.68-3.11,48.08-22.37,11.79-133.64,53.56-147.76,3.07-1.04,5.48-1.19,7.59-1.31,34.81-2.13,49.56,47.47,91.48,99.08,39.05,48.08,83.82,75.94,86.98,73.74,2.9-2.02-26.38-31.52-55.24-84.45-23.12-42.4-24.09-59.71-15.16-73.09,6.67-10,22.71-23.57,37.24-21.05,9.83,1.7,14.84,10.05,16.56,13.39,44.36,62.12,207.36,296.84,135.12,352.19-10.35,7.93-22.75,10.05-23.9,10.23-100.26,16.06-188.47-243.9-244.33-231.47-50.78,11.3-13.19,234.92-59.18,247.16-30.33,8.08-97.24-75.74-241.07-384.26-3.36-24.89-1.04-38.92,6.95-42.1,20.66-8.24,79.23,56.04,175.72,192.81Z"/>
  <g>
    <path fill="#2b2b29" d="M310.59,583.17c23.39,0,39.26,17.04,39.26,42.1-.17,5.51-2.34,8.35-7.35,8.35h-57.3c1.67,16.21,12.53,25.39,27.57,25.39,8.69,0,17.04-3.17,23.56-8.69,1.34-.5,2.17-.67,3.01-.67,3.67,0,6.52,3.01,6.52,6.52,0,2.51-1.5,4.51-4.34,5.85-8.19,6.52-17.88,9.69-29.4,9.69-25.23,0-41.93-16.21-41.93-44.27,0-23.72,13.7-44.27,40.43-44.27ZM335.31,621.43v-.67c0-15.2-10.36-25.73-24.56-25.73-10.69,0-24.22,6.85-25.56,26.4h50.12Z"/>
    <path fill="#2b2b29" d="M367.72,627.28c0-24.73,18.71-44.11,44.61-44.11,8.19,0,17.71,2.67,25.39,7.35,2.34,1,3.84,3.34,3.84,6.01,0,3.67-2.84,6.68-6.52,6.68-1.17,0-2-.33-3.01-.84-6.01-3.84-13.53-6.18-19.71-6.18-17.54,0-30.07,13.37-30.07,31.08s12.53,31.41,30.07,31.41c6.68,0,13.37-2.17,19.71-6.01,1-.5,2-.84,3.17-.84,3.68,0,6.52,3.01,6.52,6.68,0,2.67-1.5,4.84-3.84,6.01-7.85,4.34-16.71,7.18-25.56,7.18-25.9,0-44.61-19.55-44.61-44.44Z"/>
    <path fill="#2b2b29" d="M453.76,627.45c0-26.56,17.04-44.27,42.77-44.27s42.77,17.71,42.77,44.27-17.04,44.27-42.77,44.27-42.77-17.71-42.77-44.27ZM524.43,627.45c0-18.21-11.19-30.41-27.9-30.41s-27.9,12.2-27.9,30.41,11.03,30.41,27.9,30.41,27.9-12.2,27.9-30.41Z"/>
    <path fill="#2b2b29" d="M619.49,664.7v-46.44c0-13.37-6.52-21.05-18.04-21.05-9.36,0-18.71,6.18-25.73,17.71v49.79c0,3.84-3.51,6.85-7.69,6.85s-7.85-3.01-7.85-6.85v-73.84c0-4.51,3.51-7.69,7.85-7.69s7.69,3.17,7.69,7.69v7.85c8.52-9.69,19.21-15.54,30.91-15.54,18.04,0,28.4,11.53,28.4,31.91v49.62c0,3.84-3.51,6.85-7.68,6.85s-7.85-3.01-7.85-6.85Z"/>
    <path fill="#2b2b29" d="M655.07,627.45c0-26.56,17.04-44.27,42.77-44.27s42.77,17.71,42.77,44.27-17.04,44.27-42.77,44.27-42.77-17.71-42.77-44.27ZM725.74,627.45c0-18.21-11.19-30.41-27.9-30.41s-27.9,12.2-27.9,30.41,11.03,30.41,27.9,30.41,27.9-12.2,27.9-30.41Z"/>
    <path fill="#2b2b29" d="M875.1,664.7v-46.44c0-13.37-6.18-21.05-16.87-21.05-8.19,0-16.71,5.18-23.72,15.2v52.29c0,3.84-3.51,6.85-7.69,6.85s-7.85-3.01-7.85-6.85v-46.44c0-13.37-6.01-21.05-16.71-21.05-8.69,0-17.88,5.85-25.23,17.21v50.29c0,3.84-3.51,6.85-7.69,6.85s-7.85-3.01-7.85-6.85v-73.84c0-4.51,3.51-7.69,7.85-7.69s7.69,3.17,7.69,7.69v7.69c8.52-9.52,18.88-15.37,30.41-15.37,12.2,0,20.72,5.85,24.73,16.54,8.52-10.19,19.21-16.54,31.24-16.54,17.21,0,27.23,11.53,27.23,31.91v49.62c0,3.84-3.51,6.85-7.85,6.85s-7.68-3.01-7.68-6.85Z"/>
    <path fill="#2b2b29" d="M915.02,560.62c0-5.68,4.51-10.19,10.19-10.19s10.02,4.51,10.02,10.19-4.51,10.02-10.02,10.02-10.19-4.51-10.19-10.02ZM917.36,664.37v-73.84c0-4.01,3.51-7.35,7.85-7.35s7.69,3.34,7.69,7.35v73.84c0,4.01-3.51,7.18-7.69,7.18s-7.85-3.17-7.85-7.18Z"/>
    <path fill="#2b2b29" d="M953.61,627.28c0-24.73,18.71-44.11,44.61-44.11,8.19,0,17.71,2.67,25.39,7.35,2.34,1,3.84,3.34,3.84,6.01,0,3.67-2.84,6.68-6.52,6.68-1.17,0-2-.33-3.01-.84-6.01-3.84-13.53-6.18-19.71-6.18-17.54,0-30.07,13.37-30.07,31.08s12.53,31.41,30.07,31.41c6.68,0,13.37-2.17,19.71-6.01,1-.5,2-.84,3.17-.84,3.68,0,6.52,3.01,6.52,6.68,0,2.67-1.5,4.84-3.84,6.01-7.85,4.34-16.71,7.18-25.56,7.18-25.9,0-44.61-19.55-44.61-44.44Z"/>
    <path fill="#2b2b29" d="M1046.67,664.87c-3.01-1.67-4.51-3.17-4.51-5.85,0-4.18,2.84-7.52,6.18-7.52,1.67,0,3.51,1.17,5.85,2,5.35,2.51,13.03,5.01,20.21,5.01,11.53,0,19.21-4.18,19.21-11.53,0-18.04-48.95-7.35-48.95-37.92,0-16.37,13.7-25.9,31.74-25.9,8.85,0,18.54,2.34,24.39,5.51,2.34,1,4.18,2.51,4.18,6.01,0,4.34-2.51,7.18-6.01,7.18-1,0-2-.33-3.84-1-5.51-2.67-12.2-4.51-17.88-4.51-11.36,0-18.54,4.84-18.54,11.86,0,18.04,49.12,5.68,49.12,37.76,0,15.87-13.37,25.73-32.41,25.73-10.69,0-22.05-3.01-28.74-6.85Z"/>
  </g>
</svg>
